# xmcd
#
# Track frame offsets:
#	150
#	13921
#	27825
#	41176
#	54006
#	67952
#	81704
#	94523
#	107324
#	120980
#	132639
#	145906
#	159726
#	172766
#	185656
#	214237
#	230859
#	243644
#	256034
#	273078
#	292455
#	305923
#	320680
#	334645
#
# Disc length: 4642 seconds
# Revision: 0
# Processed by: cddbd v1.5.2PL0 Copyright (c) Steve Scherf et al.
# Submitted via: dBpowerAMP V12.0
#
DISCID=67122018
DTITLE=B.B. King - The Vintage Years
DYEAR=2002
DGENRE=Blues
TTITLE0=3 O'Clock Blues
TTITLE1=You Know I Love You
TTITLE2=Woke Up This Morning
TTITLE3=Please Love Me
TTITLE4=Blind Love
TTITLE5=You Upset Me Baby
TTITLE6=Every Day I Have the Blues
TTITLE7=Ten Long Years
TTITLE8=Crying Won't Help You
TTITLE9=Did You Ever Love a Woman
TTITLE10=Bad Luck
TTITLE11=Sweet Little Angel
TTITLE12=Why I Sing the Blues
TTITLE13=Worry Worry
TTITLE14=Sweet Sixteen (Pt. 1 and 2)
TTITLE15=My Own Fault (Aka It's My Fault)
TTITLE16=Good Man Gone Bad
TTITLE17=I'll Survive
TTITLE18=Walking Dr. Bill
TTITLE19=You're Breaking My Heart
TTITLE20=Gonna Miss You Around Here
TTITLE21=Downhearted (Aka How Blue Can You Get)
TTITLE22=Ain't Nobody's Business
TTITLE23=Rock Me Baby
EXTD=
EXTT0=
EXTT1=
EXTT2=
EXTT3=
EXTT4=
EXTT5=
EXTT6=
EXTT7=
EXTT8=
EXTT9=
EXTT10=
EXTT11=
EXTT12=
EXTT13=
EXTT14=
EXTT15=
EXTT16=
EXTT17=
EXTT18=
EXTT19=
EXTT20=
EXTT21=
EXTT22=
EXTT23=
PLAYORDER=
